#tb 0: 1001/30000
0,          0,          0,        1,      150, 083d638f2e147295d817bb14fff5e4f4
0,          1,          1,        1,      150, 6dbdc445b6fd6bb99f2025cc2a40977e
0,          2,          2,        1,      150, 41714089383b181d64fbfa7de5904608
0,          3,          3,        1,      150, 11fdb8465e1599f7a9227706646d2cba
0,          4,          4,        1,      150, 907876b3342a10040db0851a936af4e3
0,          5,          5,        1,      150, e7b18d47d06b25de205d873d3d941640
0,          6,          6,        1,      150, 523ce7413c8da7f6a657a9b661f36c44
0,          7,          7,        1,      150, 23caff863af875c66c903662a3e1e6a1
0,          8,          8,        1,      150, ed4cc5557203e5b7a119112ee9ceb00b
0,          9,          9,        1,      150, 4bb78a996be3188888d1c60e11a08e1b
